<mxfile host="app.diagrams.net" modified="2022-12-06T17:56:53.755Z" agent="5.0 (Windows NT 10.0; Win64; x64) AppleWebKit/537.36 (KHTML, like Gecko) Chrome/107.0.0.0 Safari/537.36" etag="qXoQGwQ_RRxKviTvlQvH" version="20.6.0" type="github">
  <diagram id="uxSpDUjdflP2EM8zE7AB" name="Page-1">
    <mxGraphModel dx="1489" dy="965" grid="1" gridSize="10" guides="1" tooltips="1" connect="1" arrows="1" fold="1" page="1" pageScale="1" pageWidth="2336" pageHeight="1654" math="0" shadow="0">
      <root>
        <mxCell id="0" />
        <mxCell id="1" parent="0" />
        <mxCell id="IIlUzJwLGU6saBRI5ah--2" value="" style="shape=image;verticalLabelPosition=bottom;labelBackgroundColor=default;verticalAlign=top;aspect=fixed;imageAspect=0;image=data:image/png,iVBORw0KGgoAAAANSUhEUgAABWEAAAOTCAMAAADpPTFcAAAAAXNSR0IArs4c6QAAAARnQU1BAACxjwv8YQUAAAAbUExURQAAAAtu0Qttzwtv0Apu0Qpu0Qpu0Qpu0Qpu0Q+HCuQAAAAIdFJOUwBIYHiX3+f3lfFkbwAAAAlwSFlzAAAXEQAAFxEByibzPwAADDxJREFUeF7t1MkNw0AQwLDJafdfcRBgSxj9yJcq0Dw+NwD7Ps/5ngRg1zUnANj2P+wAsM1hASoOC1BxWICKwwJUHBag4rAAFYcFqDgsQMVhASoOC1BxWICKwwJUHBag4rAAFYcFqDgsQMVhASoOC1BxWICKwwJUHBag4rAAFYcFqDgsQMVhASoOC1BxWICKwwJUHBag4rAAFYcFqDgsQMVhASoOC1BxWICKwwJUHBag4rAAFYcFqDgsQMVhASoOC1BxWICKwwJUHBag4rAAFYcFqDgsQMVhASoOC1BxWICKwwJUHBag4rAAFYcFqDgsQMVhASoOC1BxWICKwwJUHBag4rAAFYcFqDgsQMVhASoOC1BxWICKwwJUHBag4rAAFYcFqDgsQMVhASoOC1BxWICKwwJUHBag4rAAFYcFqDgsQMVhASoOC1BxWICKwwJUHBag4rAAFYcFqDgsQMVhASoOC1BxWICKwwJUHBag4rAAFYcFqDgsQMVhASoOC1BxWICKwwJUHBag4rAAFYcFqDgsQMVhASoOC1BxWICKwwJUHBag4rAAFYcFqDgsQMVhASoOC1BxWICKwwJUHBag4rAAFYcFqDgsQMVhASoOC1BxWICKwwJUHBag4rAAFYcFqDgsQMVhASoOC1BxWICKwwJUHBag4rAAFYcFqDgsQMVhASoOC1BxWICKwwJUHBag4rAAFYcFqDgsQMVhASoOC1BxWICKwwJUHBag4rAAFYcFqDgsQMVhASoOC1BxWICKwwJUHBag4rAAFYcFqDgsQMVhASoOC1BxWICKwwJUHBag4rAAFYcFqDgsQMVhASoOC1BxWICKwwJUHBag4rAAFYcFqDgsQMVhASoOC1BxWICKwwJUHBag4rAAFYcFqDgsQMVhASoOC1BxWICKwwJUHBag4rAAFYcFqDgsQMVhASoOC1BxWICKwwJUHBag4rAAFYcFqDgsQMVhASoOC1BxWICKwwJUHBag4rAAFYcFqDgsQMVhASoOC1BxWICKwwJUHBag4rAAFYcFqDgsQMVhASoOC1BxWICKwwJUHBag4rAAFYcFqDgsQMVhASoOC1BxWICKwwJUHBag4rAAFYcFqDgsQMVhASoOC1BxWICKwwJUHBag4rAAFYcFqDgsQMVhASoOC1BxWICKwwJUHBag4rAAFYcFqDgsQMVhASoOC1BxWICKwwJUHBag4rAAFYcFqDgsQMVhASoOC1BxWICKwwJUHBag4rAAFYcFqDgsQMVhASoOC1BxWICKwwJUHBag4rAAFYcFqDgsQMVhASoOC1BxWICKwwJUHBag4rAAFYcFqDgsQMVhASoOC1BxWICKwwJUHBag4rAAFYcFqDgsQMVhASoOC1BxWICKwwJUHBag4rAAFYcFqDgsQMVhASoOC1BxWICKwwJUHBag4rAAFYcFqDgsQMVhASoOC1BxWICKwwJUHBag4rAAFYcFqDgsQMVhASoOC1BxWICKwwJUHBag4rAAFYcFqDgsQMVhASoOC1BxWICKwwJUHBag4rAAFYcFqDgsQMVhASoOC1BxWICKwwJUHBag4rAAFYcFqDgsQMVhASoOC1BxWICKwwJUHBag4rAAFYcFqDgsQMVhASoOC1BxWICKwwJUHBag4rAAFYcFqDgsQMVhASoOC1BxWICKwwJUHBag4rAAFYcFqDgsQMVhASoOC1BxWICKwwJUHBag4rAAFYcFqDgsQMVhASoOC1BxWICKwwJUHBag4rAAFYcFqDgsQMVhASoOC1BxWICKwwJUHBag4rAAFYcFqDgsQMVhASoOC1BxWICKwwJUHBag4rAAFYcFqDgsQMVhASoOC1BxWICKwwJUHBag4rAAFYcFqDgsQMVhASoOC1BxWICKwwJUHBag4rAAFYcFqDgsQMVhASoOC1BxWICKwwJUHBag4rAAFYcFqDgsQMVhASoOC1BxWICKwwJUHBag4rAAFYcFqDgsQMVhASoOC1BxWICKwwJUHBag4rAAFYcFqDgsQMVhASoOC1BxWICKwwJUHBag4rAAFYcFqDgsQMVhASoOC1BxWICKwwJUHBag4rAAFYcFqDgsQMVhASoOC1BxWICKwwJUHBag4rAAFYcFqDgsQMVhASoOC1BxWICKwwJUHBag4rAAFYcFqDgsQMVhASoOC1BxWICKwwJUHBag4rAAFYcFqDgsQMVhASoOC1BxWICKwwJUHBag4rAAFYcFqDgsQMVhASoOC1BxWICKwwJUHBag4rAAFYcFqDgsQMVhASoOC1BxWICKwwJUHBag4rAAFYcFqDgsQMVhASoOC1BxWICKwwJUHBag4rAAFYcFqDgsQMVhASoOC1BxWICKwwJUHBag4rAAFYcFqDgsQMVhASoOC1BxWICKwwJUHBag4rAAFYcFqDgsQMVhASoOC1BxWICKwwJUHBag4rAAFYcFqDgsQMVhASoOC1BxWICKwwJUHBag4rAAFYcFqDgsQMVhASoOC1BxWICKwwJUHBag4rAAFYcFqDgsQMVhASoOC1BxWICKwwJUHBag4rAAFYcFqDgsQMVhASoOC1BxWICKwwJUHBag4rAAFYcFqDgsQMVhASoOC1BxWICKwwJUHBag4rAAFYcFqDgsQMVhASoOC1BxWICKwwJUHBag4rAAFYcFqDgsQMVhASoOC1BxWICKwwJUHBag4rAAFYcFqDgsQMVhASoOC1BxWICKwwJUHBag4rAAFYcFqDgsQMVhASoOC1BxWICKwwJUHBag4rAAFYcFqDgsQMVhASoOC1BxWICKwwJUHBag4rAAFYcFqDgsQMVhASoOC1BxWICKwwJUHBag4rAAFYcFqDgsQMVhASoOC1BxWICKwwJUHBag4rAAFYcFqDgsQMVhASoOC1BxWICKwwJUHBag4rAAFYcFqDgsQMVhASoOC1BxWICKwwJUHBag4rAAFYcFqDgsQMVhASoOC1BxWICKwwJUHBag4rAAFYcFqDgsQMVhASoOC1BxWICKwwJUHBag4rAAFYcFqDgsQMVhASoOC1BxWICKwwJUHBag4rAAFYcFqDgsQMVhASoOC1BxWICKwwJUHBag4rAAFYcFqDgsQMVhASoOC1BxWICKwwJUHBag4rAAFYcFqDgsQMVhASoOC1BxWICKwwJUHBag4rAAFYcFqDgsQMVhASoOC1BxWICKwwJUHBag4rAAFYcFqDgsQMVhASoOC1BxWICKwwJUHBag4rAAFYcFqDgsQMVhASoOC1BxWICKwwJUHBag4rAAFYcFqDgsQMVhASoOC1BxWICKwwJUHBag4rAAFYcFqDgsQMVhASoOC1BxWICKwwJUHBag4rAAFYcFqDgsQMVhASoOC1BxWICKwwJUHBag4rAAFYcFqDgsQMVhASoOC1BxWICKwwJUHBag4rAAFYcFqDgsQMVhASoOC1BxWICKwwJUHBag4rAAFYcFqDgsQMVhASoOC1BxWICKwwJUHBag4rAAFYcFqDgsQMVhASoOC1BxWICKwwJUHBag4rAAFYcFqDgsQMVhASoOC1BxWICKwwJUHBag4rAAFYcFqDgsQMVhASoOC1BxWICKwwJUHBag4rAAFYcFqDgsQMVhASoOC1BxWICKwwJUHBag4rAAFYcFqDgsQMVhASoOC1BxWICKwwJUHBag4rAAFYcFqDgsQMVhASoOC1BxWICKwwJUHBag4rAAFYcFqDgsQMVhASoOC1BxWICKwwJUHBag4rAAFYcFqDgsQMVhASoOC1BxWICKwwJUHBag4rAAFYcFqDgsQMVhASoOC1BxWICKwwJUHBag4rAAFYcFqDgsQMVhASoOC1BxWICKwwJUHBag4rAAFYcFqDgsQMVhASoOC1BxWICKwwJUHBag4rAAFYcFqDgsQMVhASoOC1BxWICKwwJUHBag4rAAFYcFqDgsQMVhASoOC1BxWICKwwJUHBag4rAAFYcFqDgsQMVhASoOC1BxWICKwwJUHBag4rAAFYcFqDgsQMVhASoOC1BxWICKwwJUHBag4rAAFYcFqDgsQMVhASoOC1BxWICKwwJUHBag4rAAFYcFqDgsQMVhASoOC1BxWICKwwJUHBag4rAAFYcFqDgsQMVhASoOC1BxWICKwwJUHBag4rAAFYcFqDgsQMVhASoOC1BxWICKwwJUzmEBKMx1AoBl8zoBwKr7/QNSaayQg07aXgAAAABJRU5ErkJggg==;" vertex="1" parent="1">
          <mxGeometry x="641" y="120" width="1053.44" height="700" as="geometry" />
        </mxCell>
        <mxCell id="IIlUzJwLGU6saBRI5ah--3" value="" style="shape=image;verticalLabelPosition=bottom;labelBackgroundColor=default;verticalAlign=top;aspect=fixed;imageAspect=0;image=data:image/png,iVBORw0KGgoAAAANSUhEUgAAAe0AAAAdCAMAAACwj8RkAAAAAXNSR0IArs4c6QAAAARnQU1BAACxjwv8YQUAAAMAUExURf///wAAAAgICPfv95ycnJSMjObm3lJSUubv7zExMSEhGTpCOlprY+bvSjFKEBAZYxAZvWtSWikhKUpKQtbe1hAQGcW9tZytrRBKYxBKvXt7jHNzc+aUzs6UnBAZlBAZ7+Zrzs5rnLW1tXNKjDEZYzEZveYQ7+YQa+YQreYQKbW95nMZY3MZvbW9GVJKjOYQzuYQSuYQjOYQCJS95lIZY1IZvZS9GZS9hNa9GXPv3nPvWghCOjHv3jHvWjHvnDHvGXPvnHPvGaWU77VC3rVCWrVCnLVCGbWUWrWUGTHF3jHFWjHFnDHFGaVr73PF3nPFWnPFnHPFGbVrWrVrGWN77xCcWhCc3mN7MRCcGRCcnAhCEGOczjF7WjF73mOcEDF7GTF7nFLv3lLvWlLvnFLvGZRC3pRCWpRCnJRCGZSUWpSUGVLF3lLFWlLFnFLFGZRrWpRrGc7Fzt697++9rRBKlBBK7+/mrTFKYzFKvXNKEHNKvbW9Su+9e87mrVJKEFJKvZS9Ss69e5xrjNa9SuaU7+aUa+ZC7+ZCa3OcY++UnOZCreZCKeaUKbXv5nOcnHMZlDEZlDEZ73MZOnMZ77XvGeZr7+9rnOZra+ZrKXMZEFpznOaUSuZCzuZCSlKcY+ZCjOZCCOaUCJTv5lKcnFIZlFIZOlIZ75TvGeZrSuZrCFIZEJTmtZTvhNbvGWOc7zGcWjGc3mOcMTGcGTGcnLW9hPe9GXNK73NKOjFKlDFK77XvSu/ve1JK75TvSs7ve9bWzvfF5pxrrfe9SrXmtbXvhPfvGRDv7xDvaxDvrRDvKbWUzhDF7xDFaxDFrRDFKbVrznN7zhB7axB773N7EBB7KRB7rTEIEDEIOhDvzhDvShDvjBDvCJSUzhDFzhDFShDFjBDFCJRrzlJ7zhB7ShB7zlJ7EBB7CBB7jLUQ77UQa7UQrbUQKZQQ75QQa5QQrZQQKbUQzrUQSrUQjLUQCJQQzpQQSpQQjJQQCAgQOntzWggAKffv3vf/3hAAAPf//wAAAL1G9pQAAAEAdFJOU////////////////////////////////////////////////////////////////////////////////////////////////////////////////////////////////////////////////////////////////////////////////////////////////////////////////////////////////////////////////////////////////////////////////////////////////////////////////////////////////////////////////////wBT9wclAAAACXBIWXMAABcRAAAXEQHKJvM/AAAOW0lEQVRoQ+1b2XLcOBJk82gezZfm0YwQ3/iH3B/sv9C/OBytmMysAkhKsiVLD7s74bQ9AkGgUCeqAGoSw3nNp3wd/MlRVeeq8jagR/3bdQrhBX941yeQJX8w+EOE9TdW/MWvkGHgK4E/Ay3g7S9i4zIS+jzVahjO31t/Kk+Gcsq8C1ia52bsfvpTch/xiL/o7ct89V6htjd8Wbf5J3mZ+r6/5P7wbQzkoXkeG/wzVuoP+Mg56I/XX7lOudPSn2PojEEosi4LKXIl263evsaU5/lmlbVsTqf0+e6PX0HxcGMD/ebuszoKf0pWPQY0sR8YvdNQHzzhlyg4dvaHb2M48gA8fxC4X1t/hbZPdQyBr2AgiYhxhlcuKVr9ez5UPePNI4iy+NTPafhdTEbBUQe/qWo99/6Y3PW4YaeoA/ufNbe0/eQP38ZbazcfWFvOvPfZT0HW7r+1ld5fsdpmySpr+/sDKq7XhPU6TYC1X7zjjzGIxNi3Pd3odOqc9GJMpcF0iu20AZzbzaaydg109upTEZOD0GGH+BaqZkzxR8unI9vdZ2L7a9b+KEn8HjLgXpFTcmPr/dhmzAXHlVOcyuLpA9F+A4X2uKA1yN2D44ZcHkyn2K4zVAnLLDa3PMPHUa3lwjf9Z1wPlKrztxLgHtlCTL0YU3v9gPY3rP292F6prnqtqnWdFSe9mbH09wdUjMUQ2wq42tpfhKT+YW3kD6YRYrCNfBNNS11QSQOas3m4nNWeTJQKdefgFS9asUC+TUW+eKpgTaz+7MwRaNymiU7nqJY8X3ZOvObbXOA85cW0RhYcctHNhHesdxjDjsU6JANc+eWWh2Uz8EyWhiWfdtloRaUUODnE9kBq+zi7gynvWOHLoKY2Ru7bOxIWar6T+wAS8Sq4OmvweKuGn1l1tvRe/dwGBmEwlOvh5wrOqU9yMUz5JG4qHLmMLUkd4nSavCE+RpoudVUotj23mE2tDSi2bVlxB2pz13W1ZhYNmmpNvQY2fU6XydnPmnhCo5mzvB4fj+eLa3loOyaW5urKxFs8ppirdYa5oeTPzbyzCnCw9tRz0FhH6+e1dNcUpPHEoXlSgDDIioxYvWVzNz7SpjWBqsImdaWGeGxLgL5heduUQWdTrfWacqmKZix6UKtdx03XmA4AlRjBYSjkmNwojGJ7mEXk1Fw4HPP4kILSZW0bro1U27CUrorO+bIIuECJdXJHzT4nLdrdWl1B6cFkOdXPaCiOc5G4RtdzXNF50TvfyvfbiGwaErzHtjU1AwtwOnQJtN5jbmVgHRdiyzeKkDgu0k8oPiE2pX7Zzb1AOqs1hDTakhAVK/0qLSyUxmlYwsLIvDwMkvb1MCsZAYqAapuklWJsZxv59Ifoz/FoM3JQvnmetuMx7Ev72LaSxwo3MAUv4bPwgBNtayDXhs32lKb3ZFDOEuwYSQqnnNPnRBJEOSY7XMHGGKbFQQJnaOeAUPTOCVdwxmRtj+2Jgl1iYlTYLbf1ZhmduiSf5NdrXzC08KdtFyr9pG0qQw5CFzZwkrYsB5e3Y8M210xgjO+PqZWczDSspoNOtbOb4kixLYoCl90pF+C5p9qUipUxJuTtnbEB+pdFTR1tMt34XylMokc+7yRRm/IkaBPz9s6pEU0eM4ZxipSxj2bBlAIDQiW2xHFrR2zna/qbF9/ortuw24j38WbyW6dVaUq2k/TsuR7QIwph2Wi8gqiUcbQ2JUnn9UafjyEdG5jnikKXHf4uxaTlsQ5ppIXNhS2lr35Zl6f6dCy9NYFEPSNep5y0RniIOtI2txJzCsum2qhtkgdBczGNONOcZDHXnF9CbC/SYZkXcofHYpX2Y8oqWX0s57vUwpWN/Ru5ArKK1Ls7r8/MgqXnbZzEMGUsi6KUJpdkaksOTsv2Og9FK39tru1cia8x8EUdqAE0zVPiLtoF/3hcrKVNYNs2cRAjd+7T2LYVxOaVdgKrkdlsG5UchuAugt3P0CvHg7VJcbRtWrk3WtuColwr252wml7pworyIWPwh+2EC3OuZsim5yL6J2Hxy9g2h6F4co3COxiEjLSxcGtfw7IkJ18Z56GSTTFbJhQ92wFzj+0s00LcGi36511Z46pzyTmZc7Yqx87bUGTdWdgtW96exlYqEnly/7Ym5zDji++NUyjabNAvPOgotsf8XJn79pBR0ktlyYCiQv2AzmLJwCZfKuOIgde3K9ovDVoxtdBGjM+wk2JbvhSsLQGaIl7GS9skItupIFULoayhE8t/7TurddTF6jfEFrclJNPjDhpIkyoTXZAJra9PKmr2WRPmcvnp68uRo99F8xidwqjYaVeDcFaS5SorTOXvYqauZAlVDKTSsKGui7mXTGPw1BmBlUNsw474i9OHr4+dgGY6nLfpUaKoNYxnuJ2IWoGSyQEZahv/GhaSycs6986Ebhz1ksEkd5cDiPeIZuM+eSHNNF+mfG6VPooXxTbzXJL8YA9GWyxBR73V0VHHaqggleJmD8O+BHrKt+zm6l45FmldOx0MbiFHLZk+2itomH22LOrYTBu3CgkrprVgYW92WxsyLKn1maLBwlV7xzgcY1sNhT1cgmQtYgRNiMDGi7OnYpu3FOfcdnGCKlYUxwsvDUNj29xMUCwn97NxFts02s84W9LaDMNqOUjSUd8pNHU1xfO1xfY4js91XxYb8wBpek1+U9skPObtXY2ccjuWQmN5o9iWtdvMrL0B27BxJmgzpmyG4zWt1qBQUsKG+hx3wQA3KBB1F1iNrrDTasWmW7vO9GTWVvTBpmIau6fmKMhteqH9kZu+wfI2FTnWF/sq8hLP21vhDcja7Gi8nI+xveNLffWLbPCw0s9im9a2PEBbSTHy2zXkPjMIhLAaJEKOKXXV9/V+f/NtbudXpqdF1O2kHlWYFZso0HLUthrK0jmXnffnK4GusjuacM6qIBb8SCtsefu1tSt17K2tmlxWEQPUncTfrJ3vtapo7jy27cmsXTGSYG07R9TiXb7rUVzmVE9QMaC8XS/32/bpMuTtyWg82aFJ1pa9dL6HUMHakWNogtSOsS2OtEdtJ2URxIxqTmPB5Q5sYu9A/YWt6p1bUdL0u7S9tQ+KI6qlaGsJBL4ix1LpLrbNN0dk5UF3W5adq7VozeJWs9ynWZc1xlyAjiyKfjb64WwkoFZzVg2q9FEhettm041Vf7mxZjHUmP48tp0R9jD6JmMHiF+WqAXdiYTjNWEk/EHw2E4ymnbk3ZPYJ3MW2+7Qx9g21zVBDzZ4HdvslWhtMujKys3tU7UETkQEqWiFnbpeQ35lTduFl+12xSpetTTAduHx52ZtNSy2vUuTVaVlyVl+7XMnXT0NSXXW41mhbJ4kbLFtAWS9yR0kBu4b5tblqZ3uFttHa8tFt/SDKk06lO1cXRZKVcYXVtCaR2BtcF339aUvtzi2WAX2Hin32Js/xrZOQDrYiigFO3NwiO1YussWFsniGVu0tGrDtipNu2TH2RqGkkjmbOYFQZRrG5ptI0e2BDIrQiCAVqDZ34JD0mVd1yXXQqiiRb1eVh13xfi9a82n5Eoe29SCqYush/OeYrzT6LzhRrQ2u7nw1bbW5atN3WnS7jxoOKuqW4zKzu2D0a4OBYbli+htm7W32A6uIHFY6cru8GL9RK2voawZLO1gAdIr1vvhnKCcDsTNE7C8fbB2iG0xAqL3gkPEiVEAeY63YZDpRb3kSxsKU6ZsYETfy9vurKHiQShLIG7z1FkIdxsHXWgnfze2VZNjx2p0wwuAqmadHkaSjDOZPLfFlLdUNs4lv4ltE7Fpn9oag61Ib9occ9lfakY/T9OscVso7Wpy85zTZZ6vkJjatrx6KaUKHN61rIZGTkRe1g52l9+h9LckgrAya2d+aG5KewGd2abW1BcE9xx/f0deo4kbfh3b2lpPzcW1RuZMIhbMHMa2aBlfdXuVUOwiPx7b7+VtnYwoo92MBSCMNSYyKMIIvQ9iewfGqTEO6M4YivOOUUag9mVaBp0ah9j2SHI0g6SE7/hc04A/SoQIvSHR4G+O6FUOqEKPGvpObEdX2E9iAIgzmsr0bXimw8lVHGlje0/4JQvRDPgPSWy/AQaE2N4UqWkyQWDgEYepcNpLpzqVU1Mj+pu8DazyBUMNPUj6yKAyB9Tz67ydycEC7FtLOG81sbycGKcGfemQ20cr6GpBC+usYt/JiZS3e7u59Q069HoNeEiCgC1vA7YdEvbRK3kKs3RZIL7kKmKArVhsmOkKFXNhUqqPYFK4LrknbeGEHQL35sdopX93PyvnAu4koYCLsHopC7ea42wRwFfhyzPrIg0zE2RRuoddqcgGRtS2mRjbY8zbftc9tXU9jg3O0VI6D9obNwVvOSaURH1ZSjtv0GIE3+L9nHtBlRV9XfdPA6l54YIqum7qurRfvVjQDbJoYGavhReSMDer8uulq7t+XviCHPYdasbSP7/fn0o8dZcfrtSAIhAl7nNZY9J2OTCAgborZz1P5EtDyYmWzSmDsRpfJgOX6i7XSTE1UFZj4icOGCRv2zZPymMJnj2d+QFbZjt4JAIhkggQVe4za1vWPb9WkCWblkH/F3sYMKp0X3Zh+tallQ1MV8kTmroCr2a09IWONnXVAtWwrqHAyJLs5XDOQkdo/A6HOcBgWt5N0q8LeHuPLM7dDa7Og9eiwuu5eBp+zw/wZj2cyN5j4I1kh+dfcC0e/IXyeM7fx7mv2g48Eyq2w4Es4C3bUIATyqJQ26gs6uHlJdtpGQfM3SD/SaCtRxousxfRhn/xdQQVKi942KliRtHPj1nsfr/Y+Yv/X1jVVGCDXCfWHKhDQ8L/zu8D/8X/JOKv8VnxhDpQ9zAED/1/8e/C7pxw6lgH+tFJ33//4l+H6j5NOf4s9rGjWvO5nY//C9V/F0nyD94qqnVySgDtAAAAAElFTkSuQmCC;" vertex="1" parent="1">
          <mxGeometry x="656" y="130" width="515" height="30.29" as="geometry" />
        </mxCell>
        <mxCell id="IIlUzJwLGU6saBRI5ah--8" value="" style="rounded=0;whiteSpace=wrap;html=1;rotation=-90;fillColor=none;strokeColor=#595959;dashed=1;strokeWidth=3;gradientColor=default;" vertex="1" parent="1">
          <mxGeometry x="187.5" y="462.5" width="520" height="185" as="geometry" />
        </mxCell>
        <mxCell id="IIlUzJwLGU6saBRI5ah--11" value="" style="shape=image;verticalLabelPosition=bottom;verticalAlign=top;imageAspect=0;aspect=fixed;image=data:image/svg+xml,PHN2ZyB4bWxucz0iaHR0cDovL3d3dy53My5vcmcvMjAwMC9zdmciIHZpZXdCb3g9Ii0wLjAwMDA5MzI4NjUyMjMxNDg4Mzc3IDAuMDAwMDEyNjg4MzM4NzU2NTYxMjggMzYuMDAwMTc1NDc2MDc0MjIgNDcuOTk5OTg4NTU1OTA4MiIgd2lkdGg9IjM2LjAwMDE3NTQ3NjA3NDIyIiBoZWlnaHQ9IjQ3Ljk5OTk4ODU1NTkwODIiPjxkZWZzPjxzdHlsZT4uY2xzLTF7ZmlsbDojNTk1OTU5O308L3N0eWxlPjwvZGVmcz48dGl0bGU+cGVyc29uLXBsYWNlaG9sZGVyPC90aXRsZT48ZyBpZD0iTGF5ZXJfMiIgZGF0YS1uYW1lPSJMYXllciAyIj48ZyBpZD0icGVyc29uLXBsYWNlaG9sZGVyIj48cGF0aCBjbGFzcz0iY2xzLTEiIGQ9Ik0yNCwyNGExMS43MzMsMTEuNzMzLDAsMCwxLDQuNjQxLjkzOCwxMS45NywxMS45NywwLDAsMSw2LjQyMSw2LjQyMUExMS43MzcsMTEuNzM3LDAsMCwxLDM2LDM2VjQ4SDBWMzZhMTEuNzE5LDExLjcxOSwwLDAsMSwuOTM4LTQuNjQxLDEyLjA0NiwxMi4wNDYsMCwwLDEsMi41NzgtMy44NDMsMTIuMTc4LDEyLjE3OCwwLDAsMSwzLjgtMi41NzhBMTEuNjMxLDExLjYzMSwwLDAsMSwxMiwyNEgyNFptOSwxMmE4Ljk2Myw4Ljk2MywwLDAsMC05LTlIMTJhOC42ODIsOC42ODIsMCwwLDAtNi4zNzUsMi42MjVBOC42ODEsOC42ODEsMCwwLDAsMywzNnY5SDMzWk0zMCwxMmExMS42MzEsMTEuNjMxLDAsMCwxLS45MzgsNC42ODgsMTIuMTc4LDEyLjE3OCwwLDAsMS0yLjU3OCwzLjgsMTIuMDE5LDEyLjAxOSwwLDAsMS0zLjg0MywyLjU3OCwxMi4wNjcsMTIuMDY3LDAsMCwxLTkuMzI5LDAsMTIuMjI0LDEyLjIyNCwwLDAsMS02LjM3NC02LjM3NEExMS42MTQsMTEuNjE0LDAsMCwxLDYsMTJhMTEuNzE5LDExLjcxOSwwLDAsMSwuOTM4LTQuNjQxQTEyLjA0NiwxMi4wNDYsMCwwLDEsOS41MTYsMy41MTZhMTIuMTc4LDEyLjE3OCwwLDAsMSwzLjgtMi41NzgsMTIuMDY3LDEyLjA2NywwLDAsMSw5LjMyOSwwLDExLjk3LDExLjk3LDAsMCwxLDYuNDIxLDYuNDIxQTExLjczNywxMS43MzcsMCwwLDEsMzAsMTJaTTE4LDIxYTguNjgxLDguNjgxLDAsMCwwLDYuMzc1LTIuNjI1QTguNjgyLDguNjgyLDAsMCwwLDI3LDEyYTguNjg1LDguNjg1LDAsMCwwLTIuNjI1LTYuMzc1QTguNjg1LDguNjg1LDAsMCwwLDE4LDNhOC42ODIsOC42ODIsMCwwLDAtNi4zNzUsMi42MjVBOC42ODEsOC42ODEsMCwwLDAsOSwxMmE4LjY3OCw4LjY3OCwwLDAsMCwyLjYyNSw2LjM3NUE4LjY3OCw4LjY3OCwwLDAsMCwxOCwyMVoiLz48L2c+PC9nPjwvc3ZnPg==;dashed=1;strokeColor=#595959;strokeWidth=3;fillColor=none;gradientColor=default;" vertex="1" parent="1">
          <mxGeometry x="427.5" y="160.29" width="40" height="53.33" as="geometry" />
        </mxCell>
        <mxCell id="IIlUzJwLGU6saBRI5ah--12" value="" style="shape=image;verticalLabelPosition=bottom;labelBackgroundColor=default;verticalAlign=top;aspect=fixed;imageAspect=0;image=data:image/png,iVBORw0KGgoAAAANSUhEUgAAABsAAABECAMAAABH0r5FAAAAAXNSR0IArs4c6QAAAARnQU1BAACxjwv8YQUAAAAeUExURQAAAFpaWllZWVhYWFlZWVlZWVlZWVlZWVlZWVlZWSLJH+QAAAAJdFJOUwAwSGB4r7/n96n35XwAAAAJcEhZcwAAFxEAABcRAcom8z8AAABpSURBVEhL7dRBDoAwCERRqm2V+1/YNoViwrB0JX9jw+RtpXdHP+Xlu/iWl4+Z5eXLDZcbLjfcT7faR2Obnyo3rYy7VuS2azIwN7lYBh0z6JlBwBQiphCyBTFbMGATRmzCkBHFv/nsy4gesfIHFec4FiAAAAAASUVORK5CYII=;" vertex="1" parent="1">
          <mxGeometry x="434" y="230" width="27" height="68" as="geometry" />
        </mxCell>
        <mxCell id="IIlUzJwLGU6saBRI5ah--19" value="&lt;p style=&quot;font-size: 17px;&quot;&gt;&lt;font style=&quot;font-size: 17px;&quot;&gt;Application&lt;/font&gt;&lt;/p&gt;" style="text;html=1;align=center;verticalAlign=middle;resizable=0;points=[];autosize=1;strokeColor=none;fillColor=none;fontSize=17;fontFamily=Helvetica;spacing=0;spacingTop=-15;labelBackgroundColor=none;labelBorderColor=none;spacingLeft=0;spacingBottom=-15;horizontal=1;fontStyle=1" vertex="1" parent="1">
          <mxGeometry x="392.5" y="320" width="110" height="30" as="geometry" />
        </mxCell>
        <mxCell id="IIlUzJwLGU6saBRI5ah--20" value="&lt;span style=&quot;color: rgb(0, 0, 0); font-family: Helvetica; font-size: 17px; font-style: normal; font-variant-ligatures: normal; font-variant-caps: normal; letter-spacing: normal; orphans: 2; text-indent: 0px; text-transform: none; widows: 2; word-spacing: 0px; -webkit-text-stroke-width: 0px; background-color: rgb(248, 249, 250); text-decoration-thickness: initial; text-decoration-style: initial; text-decoration-color: initial; float: none; display: inline !important;&quot;&gt;Client&lt;/span&gt;" style="text;whiteSpace=wrap;html=1;fontSize=17;fontFamily=Helvetica;align=center;fontStyle=1" vertex="1" parent="1">
          <mxGeometry x="407.5" y="340" width="72.5" height="40" as="geometry" />
        </mxCell>
      </root>
    </mxGraphModel>
  </diagram>
</mxfile>
